<svg width="86" height="24" viewBox="0 0 86 24" fill="none" xmlns="http://www.w3.org/2000/svg">
<path d="M11.9234 0.770672C12.4976 -0.256892 13.9762 -0.25689 14.5505 0.770674L26.2805 21.7613C26.841 22.7643 26.116 24 24.967 24H1.50687C0.357905 24 -0.367133 22.7643 0.193359 21.7613L11.9234 0.770672Z" fill="url(#paint0_linear_289_191)"/>
<path d="M21.5126 23.9999H4.96094L11.9572 12.6929C12.5454 11.7423 13.9281 11.7423 14.5163 12.6929L21.5126 23.9999Z" fill="#65A30D"/>
<path d="M33.6576 3.22405V5.69212H32.4736V1.42303H33.6021V2.17624H33.6521C33.7466 1.92795 33.905 1.73154 34.1273 1.58701C34.3497 1.44063 34.6193 1.36744 34.9361 1.36744C35.2326 1.36744 35.4911 1.4323 35.7116 1.562C35.9321 1.6917 36.1035 1.87699 36.2258 2.11787C36.3481 2.35689 36.4092 2.64224 36.4092 2.97391V5.69212H35.2252V3.18514C35.227 2.92388 35.1603 2.72006 35.0251 2.57368C34.8898 2.42545 34.7036 2.35134 34.4664 2.35134C34.3071 2.35134 34.1663 2.38561 34.044 2.45417C33.9235 2.52273 33.829 2.62279 33.7605 2.75434C33.6938 2.88405 33.6595 3.04062 33.6576 3.22405Z" fill="#84CC16"/>
<path d="M39.2712 5.7755C38.8395 5.7755 38.4662 5.68378 38.1512 5.50035C37.838 5.31506 37.5962 5.0575 37.4258 4.72769C37.2553 4.39602 37.1701 4.01154 37.1701 3.57425C37.1701 3.13326 37.2553 2.74786 37.4258 2.41804C37.5962 2.08637 37.838 1.82882 38.1512 1.64538C38.4662 1.46009 38.8395 1.36744 39.2712 1.36744C39.703 1.36744 40.0754 1.46009 40.3885 1.64538C40.7035 1.82882 40.9463 2.08637 41.1167 2.41804C41.2872 2.74786 41.3724 3.13326 41.3724 3.57425C41.3724 4.01154 41.2872 4.39602 41.1167 4.72769C40.9463 5.0575 40.7035 5.31506 40.3885 5.50035C40.0754 5.68378 39.703 5.7755 39.2712 5.7755ZM39.2768 4.85832C39.4732 4.85832 39.6372 4.80273 39.7687 4.69155C39.9003 4.57853 39.9994 4.42474 40.0661 4.23018C40.1347 4.03563 40.169 3.8142 40.169 3.56591C40.169 3.31763 40.1347 3.0962 40.0661 2.90165C39.9994 2.70709 39.9003 2.5533 39.7687 2.44028C39.6372 2.32725 39.4732 2.27073 39.2768 2.27073C39.0785 2.27073 38.9118 2.32725 38.7765 2.44028C38.6431 2.5533 38.5421 2.70709 38.4736 2.90165C38.4069 3.0962 38.3735 3.31763 38.3735 3.56591C38.3735 3.8142 38.4069 4.03563 38.4736 4.23018C38.5421 4.42474 38.6431 4.57853 38.7765 4.69155C38.9118 4.80273 39.0785 4.85832 39.2768 4.85832Z" fill="#84CC16"/>
<path d="M45.8826 5.7755C45.4454 5.7755 45.0692 5.68286 44.7542 5.49757C44.4411 5.31042 44.2002 5.05102 44.0316 4.71935C43.8648 4.38768 43.7814 4.00598 43.7814 3.57425C43.7814 3.13697 43.8658 2.75342 44.0344 2.4236C44.2048 2.09193 44.4466 1.83345 44.7598 1.64816C45.0729 1.46102 45.4454 1.36744 45.8771 1.36744C46.2495 1.36744 46.5756 1.43507 46.8554 1.57034C47.1352 1.7056 47.3566 1.89552 47.5197 2.1401C47.6827 2.38469 47.7726 2.67189 47.7893 3.00171H46.672C46.6405 2.78862 46.5571 2.61723 46.4218 2.48752C46.2884 2.35597 46.1133 2.29019 45.8965 2.29019C45.7131 2.29019 45.5528 2.34022 45.4157 2.44028C45.2804 2.53848 45.1748 2.68208 45.0989 2.87108C45.0229 3.06007 44.9849 3.28891 44.9849 3.55758C44.9849 3.82995 45.022 4.06157 45.0961 4.25242C45.1721 4.44326 45.2786 4.58872 45.4157 4.68877C45.5528 4.78883 45.7131 4.83886 45.8965 4.83886C46.0318 4.83886 46.1532 4.81107 46.2606 4.75548C46.37 4.69989 46.4598 4.61929 46.5302 4.51368C46.6025 4.40621 46.6497 4.27743 46.672 4.12734H47.7893C47.7707 4.45346 47.6818 4.74066 47.5225 4.98895C47.365 5.23538 47.1472 5.42808 46.8693 5.56705C46.5914 5.70602 46.2625 5.7755 45.8826 5.7755Z" fill="#84CC16"/>
<path d="M50.4762 5.7755C50.0445 5.7755 49.6711 5.68378 49.3561 5.50035C49.043 5.31506 48.8012 5.0575 48.6307 4.72769C48.4603 4.39602 48.375 4.01154 48.375 3.57425C48.375 3.13326 48.4603 2.74786 48.6307 2.41804C48.8012 2.08637 49.043 1.82882 49.3561 1.64538C49.6711 1.46009 50.0445 1.36744 50.4762 1.36744C50.9079 1.36744 51.2804 1.46009 51.5935 1.64538C51.9085 1.82882 52.1512 2.08637 52.3217 2.41804C52.4922 2.74786 52.5774 3.13326 52.5774 3.57425C52.5774 4.01154 52.4922 4.39602 52.3217 4.72769C52.1512 5.0575 51.9085 5.31506 51.5935 5.50035C51.2804 5.68378 50.9079 5.7755 50.4762 5.7755ZM50.4818 4.85832C50.6782 4.85832 50.8422 4.80273 50.9737 4.69155C51.1053 4.57853 51.2044 4.42474 51.2711 4.23018C51.3397 4.03563 51.374 3.8142 51.374 3.56591C51.374 3.31763 51.3397 3.0962 51.2711 2.90165C51.2044 2.70709 51.1053 2.5533 50.9737 2.44028C50.8422 2.32725 50.6782 2.27073 50.4818 2.27073C50.2835 2.27073 50.1168 2.32725 49.9815 2.44028C49.8481 2.5533 49.7471 2.70709 49.6785 2.90165C49.6118 3.0962 49.5785 3.31763 49.5785 3.56591C49.5785 3.8142 49.6118 4.03563 49.6785 4.23018C49.7471 4.42474 49.8481 4.57853 49.9815 4.69155C50.1168 4.80273 50.2835 4.85832 50.4818 4.85832Z" fill="#84CC16"/>
<path d="M54.9204 5.76161C54.5962 5.76161 54.3025 5.67823 54.0394 5.51146C53.7781 5.34285 53.5706 5.09549 53.4168 4.76938C53.2648 4.44141 53.1889 4.03933 53.1889 3.56314C53.1889 3.07397 53.2676 2.66726 53.4251 2.343C53.5826 2.01689 53.792 1.77323 54.0533 1.61203C54.3164 1.44897 54.6045 1.36744 54.9176 1.36744C55.1567 1.36744 55.3558 1.40821 55.5152 1.48974C55.6764 1.56941 55.8061 1.66947 55.9043 1.78991C56.0044 1.90849 56.0803 2.02522 56.1322 2.1401H56.1683V0H57.3496V5.69212H56.1822V5.0084H56.1322C56.0766 5.12699 55.9979 5.24465 55.896 5.36138C55.7959 5.47626 55.6653 5.57168 55.5041 5.64765C55.3447 5.72362 55.1502 5.76161 54.9204 5.76161ZM55.2956 4.8194C55.4865 4.8194 55.6477 4.76752 55.7792 4.66376C55.9126 4.55815 56.0146 4.41084 56.085 4.22184C56.1572 4.03285 56.1934 3.81142 56.1934 3.55758C56.1934 3.30373 56.1582 3.08323 56.0877 2.89609C56.0173 2.70895 55.9154 2.56442 55.782 2.46251C55.6486 2.3606 55.4865 2.30965 55.2956 2.30965C55.1011 2.30965 54.9371 2.36245 54.8037 2.46807C54.6703 2.57368 54.5693 2.72006 54.5007 2.90721C54.4322 3.09435 54.3979 3.31114 54.3979 3.55758C54.3979 3.80587 54.4322 4.02543 54.5007 4.21628C54.5711 4.40528 54.6721 4.55351 54.8037 4.66098C54.9371 4.7666 55.1011 4.8194 55.2956 4.8194Z" fill="#84CC16"/>
<path d="M60.2686 5.7755C59.8295 5.7755 59.4515 5.68656 59.1346 5.50869C58.8196 5.32895 58.5769 5.07511 58.4064 4.74714C58.236 4.41732 58.1507 4.02729 58.1507 3.57703C58.1507 3.13789 58.236 2.75249 58.4064 2.42082C58.5769 2.08915 58.8168 1.83067 59.1263 1.64538C59.4376 1.46009 59.8026 1.36744 60.2213 1.36744C60.503 1.36744 60.7652 1.41284 61.0079 1.50363C61.2525 1.59257 61.4656 1.72691 61.6472 1.90664C61.8306 2.08637 61.9733 2.31242 62.0752 2.5848C62.1771 2.85533 62.228 3.17217 62.228 3.53534V3.86053H58.6232V3.12678H61.1135C61.1135 2.95631 61.0765 2.8053 61.0023 2.67374C60.9282 2.54218 60.8254 2.43935 60.6938 2.36523C60.5641 2.28926 60.4131 2.25128 60.2408 2.25128C60.0611 2.25128 59.9017 2.29297 59.7627 2.37635C59.6256 2.45788 59.5182 2.56813 59.4403 2.70709C59.3625 2.84421 59.3227 2.99707 59.3208 3.16569V3.86331C59.3208 4.07454 59.3597 4.25705 59.4376 4.41084C59.5172 4.56463 59.6293 4.68322 59.7739 4.7666C59.9184 4.84998 60.0898 4.89167 60.288 4.89167C60.4196 4.89167 60.54 4.87314 60.6494 4.83608C60.7587 4.79902 60.8523 4.74344 60.9301 4.66932C61.0079 4.5952 61.0672 4.50441 61.108 4.39694L62.203 4.46921C62.1474 4.73232 62.0335 4.96208 61.8612 5.15849C61.6907 5.35304 61.4702 5.50498 61.1997 5.6143C60.931 5.72177 60.6206 5.7755 60.2686 5.7755Z" fill="#84CC16"/>
<path d="M36.5972 23.9919C35.8048 23.9919 35.0987 23.8544 34.4788 23.5795C33.8589 23.2992 33.3684 22.8869 33.0073 22.3424C32.6515 21.7926 32.4736 21.1081 32.4736 20.2888C32.4736 19.5988 32.6003 19.0193 32.8536 18.5504C33.107 18.0814 33.452 17.7041 33.8886 17.4184C34.3252 17.1327 34.8211 16.9171 35.3763 16.7716C35.9369 16.6261 36.5244 16.5237 37.1389 16.4644C37.8612 16.3889 38.4434 16.3188 38.8854 16.2541C39.3274 16.1841 39.6481 16.0816 39.8475 15.9469C40.047 15.8121 40.1467 15.6127 40.1467 15.3486V15.3001C40.1467 14.788 39.985 14.3918 39.6616 14.1115C39.3435 13.8312 38.8907 13.6911 38.3032 13.6911C37.6833 13.6911 37.1901 13.8285 36.8236 14.1034C36.457 14.3729 36.2145 14.7125 36.0959 15.1222L32.9102 14.8634C33.072 14.1088 33.39 13.4566 33.8643 12.9068C34.3387 12.3516 34.9505 11.9258 35.6997 11.6293C36.4543 11.3274 37.3276 11.1765 38.3194 11.1765C39.0093 11.1765 39.6696 11.2574 40.3003 11.4191C40.9364 11.5808 41.4996 11.8314 41.9902 12.171C42.4861 12.5106 42.8768 12.9472 43.1625 13.4808C43.4482 14.0091 43.5911 14.6424 43.5911 15.3809V23.7574H40.3246V22.0352H40.2275C40.0281 22.4233 39.7613 22.7656 39.4271 23.062C39.0929 23.3531 38.6913 23.5822 38.2224 23.7493C37.7534 23.911 37.2117 23.9919 36.5972 23.9919ZM37.5836 21.6148C38.0903 21.6148 38.5377 21.515 38.9258 21.3156C39.3139 21.1108 39.6184 20.8359 39.8394 20.4909C40.0604 20.1459 40.1709 19.7551 40.1709 19.3185V18.0006C40.0631 18.0707 39.9149 18.1353 39.7262 18.1946C39.543 18.2485 39.3354 18.2997 39.1037 18.3483C38.8719 18.3914 38.6401 18.4318 38.4083 18.4695C38.1765 18.5019 37.9663 18.5315 37.7777 18.5585C37.3734 18.6178 37.0203 18.7121 36.7185 18.8415C36.4166 18.9708 36.1821 19.146 36.015 19.367C35.8479 19.5826 35.7644 19.8521 35.7644 20.1756C35.7644 20.6445 35.9342 21.003 36.2738 21.2509C36.6187 21.4935 37.0554 21.6148 37.5836 21.6148Z" fill="#4B5563"/>
<path d="M52.8691 11.3382V13.9255H45.3901V11.3382H52.8691ZM47.088 8.36278H50.5324V19.9411C50.5324 20.2591 50.5809 20.5071 50.6779 20.6849C50.7749 20.8574 50.9097 20.9787 51.0822 21.0488C51.2601 21.1189 51.4649 21.1539 51.6967 21.1539C51.8584 21.1539 52.0201 21.1404 52.1818 21.1135C52.3435 21.0811 52.4675 21.0569 52.5537 21.0407L53.0954 23.6038C52.923 23.6577 52.6804 23.7197 52.3678 23.7897C52.0551 23.8652 51.6751 23.911 51.2277 23.9272C50.3976 23.9595 49.6699 23.849 49.0447 23.5957C48.4248 23.3423 47.9424 22.9488 47.5974 22.4152C47.2524 21.8816 47.0826 21.2078 47.088 20.3939V8.36278Z" fill="#4B5563"/>
<path d="M58.824 7.19849V23.7574H55.3796V7.19849H58.824Z" fill="#4B5563"/>
<path d="M65.1245 23.9919C64.3321 23.9919 63.626 23.8544 63.0061 23.5795C62.3862 23.2992 61.8957 22.8869 61.5346 22.3424C61.1788 21.7926 61.0009 21.1081 61.0009 20.2888C61.0009 19.5988 61.1276 19.0193 61.381 18.5504C61.6343 18.0814 61.9793 17.7041 62.4159 17.4184C62.8525 17.1327 63.3484 16.9171 63.9036 16.7716C64.4642 16.6261 65.0517 16.5237 65.6662 16.4644C66.3885 16.3889 66.9707 16.3188 67.4127 16.2541C67.8547 16.1841 68.1754 16.0816 68.3748 15.9469C68.5743 15.8121 68.674 15.6127 68.674 15.3486V15.3001C68.674 14.788 68.5123 14.3918 68.1889 14.1115C67.8708 13.8312 67.4181 13.6911 66.8305 13.6911C66.2106 13.6911 65.7174 13.8285 65.3509 14.1034C64.9844 14.3729 64.7418 14.7125 64.6232 15.1222L61.4376 14.8634C61.5993 14.1088 61.9173 13.4566 62.3916 12.9068C62.866 12.3516 63.4778 11.9258 64.227 11.6293C64.9817 11.3274 65.8549 11.1765 66.8467 11.1765C67.5366 11.1765 68.197 11.2574 68.8276 11.4191C69.4637 11.5808 70.027 11.8314 70.5175 12.171C71.0134 12.5106 71.4042 12.9472 71.6898 13.4808C71.9755 14.0091 72.1184 14.6424 72.1184 15.3809V23.7574H68.8519V22.0352H68.7548C68.5554 22.4233 68.2886 22.7656 67.9544 23.062C67.6202 23.3531 67.2186 23.5822 66.7497 23.7493C66.2807 23.911 65.739 23.9919 65.1245 23.9919ZM66.1109 21.6148C66.6176 21.6148 67.065 21.515 67.4531 21.3156C67.8412 21.1108 68.1457 20.8359 68.3667 20.4909C68.5877 20.1459 68.6983 19.7551 68.6983 19.3185V18.0006C68.5904 18.0707 68.4422 18.1353 68.2536 18.1946C68.0703 18.2485 67.8628 18.2997 67.631 18.3483C67.3992 18.3914 67.1674 18.4318 66.9356 18.4695C66.7038 18.5019 66.4936 18.5315 66.305 18.5585C65.9007 18.6178 65.5476 18.7121 65.2458 18.8415C64.9439 18.9708 64.7094 19.146 64.5424 19.367C64.3753 19.5826 64.2917 19.8521 64.2917 20.1756C64.2917 20.6445 64.4615 21.003 64.8011 21.2509C65.1461 21.4935 65.5827 21.6148 66.1109 21.6148Z" fill="#4B5563"/>
<path d="M85.1237 14.8796L81.9704 15.0737C81.9165 14.8042 81.8006 14.5616 81.6228 14.346C81.4449 14.125 81.2104 13.9498 80.9193 13.8204C80.6336 13.6857 80.2914 13.6183 79.8925 13.6183C79.3589 13.6183 78.9088 13.7315 78.5422 13.9579C78.1757 14.1789 77.9924 14.4753 77.9924 14.8473C77.9924 15.1437 78.111 15.3944 78.3482 15.5992C78.5854 15.804 78.9923 15.9685 79.5691 16.0924L81.8168 16.5452C83.0242 16.7932 83.9244 17.192 84.5173 17.7418C85.1103 18.2917 85.4067 19.014 85.4067 19.9087C85.4067 20.7227 85.1669 21.4369 84.6871 22.0514C84.2128 22.6659 83.5606 23.1456 82.7305 23.4906C81.9058 23.8302 80.9544 24 79.8763 24C78.2323 24 76.9225 23.6577 75.9468 22.9731C74.9766 22.2832 74.4079 21.3452 74.2408 20.1594L77.6286 19.9815C77.731 20.4828 77.9789 20.8655 78.3724 21.1296C78.7659 21.3884 79.2699 21.5177 79.8844 21.5177C80.4881 21.5177 80.9732 21.4018 81.3398 21.1701C81.7117 20.9329 81.9004 20.6283 81.9058 20.2564C81.9004 19.9438 81.7683 19.6877 81.5096 19.4883C81.2508 19.2835 80.852 19.1271 80.3129 19.0193L78.1622 18.5908C76.9494 18.3483 76.0465 17.9278 75.4536 17.3295C74.8661 16.7312 74.5723 15.9685 74.5723 15.0413C74.5723 14.2436 74.7879 13.5563 75.2191 12.9795C75.6557 12.4028 76.2675 11.9581 77.0545 11.6455C77.8469 11.3328 78.774 11.1765 79.8359 11.1765C81.4045 11.1765 82.6388 11.508 83.539 12.171C84.4446 12.834 84.9728 13.7369 85.1237 14.8796Z" fill="#4B5563"/>
<defs>
<linearGradient id="paint0_linear_289_191" x1="13.2369" y1="0" x2="13.2369" y2="24" gradientUnits="userSpaceOnUse">
<stop stop-color="#BEF264"/>
<stop offset="1" stop-color="#84CC16"/>
</linearGradient>
</defs>
</svg>
