<svg width="17" height="18" viewBox="0 0 17 18" fill="none" xmlns="http://www.w3.org/2000/svg">
<path d="M8.46875 17.0405C9.57292 17.0405 10.612 16.8296 11.5859 16.4077C12.5599 15.991 13.4193 15.4103 14.1641 14.6655C14.9089 13.9207 15.4922 13.0614 15.9141 12.0874C16.3359 11.1134 16.5469 10.0744 16.5469 8.97021C16.5469 7.86605 16.3359 6.82699 15.9141 5.85303C15.4922 4.87907 14.9089 4.0223 14.1641 3.28271C13.4193 2.53792 12.5599 1.95459 11.5859 1.53271C10.612 1.11084 9.57031 0.899902 8.46094 0.899902C7.35677 0.899902 6.31771 1.11084 5.34375 1.53271C4.375 1.95459 3.51823 2.53792 2.77344 3.28271C2.03385 4.0223 1.45312 4.87907 1.03125 5.85303C0.609375 6.82699 0.398438 7.86605 0.398438 8.97021C0.398438 10.0744 0.609375 11.1134 1.03125 12.0874C1.45312 13.0614 2.03385 13.9207 2.77344 14.6655C3.51823 15.4103 4.3776 15.991 5.35156 16.4077C6.32552 16.8296 7.36458 17.0405 8.46875 17.0405ZM8.46875 15.4468C7.57292 15.4468 6.73177 15.2801 5.94531 14.9468C5.16406 14.6134 4.47656 14.1499 3.88281 13.5562C3.29427 12.9624 2.83333 12.2749 2.5 11.4937C2.16667 10.7124 2 9.87126 2 8.97021C2 8.07438 2.16667 7.23584 2.5 6.45459C2.83333 5.66813 3.29427 4.97803 3.88281 4.38428C4.47135 3.79053 5.15625 3.32699 5.9375 2.99365C6.72396 2.66032 7.5651 2.49365 8.46094 2.49365C9.36198 2.49365 10.2031 2.66032 10.9844 2.99365C11.7708 3.32699 12.4609 3.79053 13.0547 4.38428C13.6484 4.97803 14.112 5.66813 14.4453 6.45459C14.7786 7.23584 14.9453 8.07438 14.9453 8.97021C14.9453 9.87126 14.7786 10.7124 14.4453 11.4937C14.112 12.2749 13.6484 12.9624 13.0547 13.5562C12.4609 14.1499 11.7734 14.6134 10.9922 14.9468C10.2109 15.2801 9.36979 15.4468 8.46875 15.4468ZM5.32812 12.8218L9.69531 10.7437C9.9401 10.6291 10.125 10.4416 10.25 10.1812L12.3203 5.82178C12.4505 5.54574 12.4323 5.32438 12.2656 5.15771C12.1042 4.99105 11.8802 4.97542 11.5938 5.11084L7.24219 7.17334C6.9974 7.28271 6.8099 7.47282 6.67969 7.74365L4.60938 12.1108C4.52604 12.2931 4.50781 12.4546 4.55469 12.5952C4.60677 12.7306 4.70052 12.8244 4.83594 12.8765C4.97656 12.9285 5.14062 12.9103 5.32812 12.8218ZM8.46875 9.9624C8.19792 9.9624 7.96615 9.86605 7.77344 9.67334C7.58073 9.48063 7.48438 9.24626 7.48438 8.97021C7.48438 8.69938 7.58073 8.47021 7.77344 8.28271C7.96615 8.09001 8.19792 7.99365 8.46875 7.99365C8.73958 7.99365 8.97135 8.09001 9.16406 8.28271C9.35677 8.47021 9.45312 8.69938 9.45312 8.97021C9.45312 9.24626 9.35677 9.48063 9.16406 9.67334C8.97135 9.86605 8.73958 9.9624 8.46875 9.9624Z" fill="#84CC16"/>
</svg>
