<svg width="21" height="12" viewBox="0 0 21 12" fill="none" xmlns="http://www.w3.org/2000/svg">
<path d="M1.61328 11.7598H19.8359C20.1484 11.7598 20.4121 11.6458 20.627 11.418C20.8483 11.1836 20.959 10.9134 20.959 10.6074C20.959 10.2949 20.8483 10.028 20.627 9.80664C20.4121 9.57878 20.1484 9.46484 19.8359 9.46484H1.61328C1.30078 9.46484 1.03385 9.57878 0.8125 9.80664C0.597656 10.028 0.490234 10.2949 0.490234 10.6074C0.490234 10.9069 0.597656 11.1738 0.8125 11.4082C1.03385 11.6426 1.30078 11.7598 1.61328 11.7598ZM1.61328 7.10156H19.8359C20.1484 7.10156 20.4121 6.98763 20.627 6.75977C20.8483 6.5319 20.959 6.26497 20.959 5.95898C20.959 5.63997 20.8483 5.36654 20.627 5.13867C20.4121 4.91081 20.1484 4.79688 19.8359 4.79688H1.61328C1.30078 4.79688 1.03385 4.91406 0.8125 5.14844C0.597656 5.3763 0.490234 5.64648 0.490234 5.95898C0.490234 6.25846 0.597656 6.52539 0.8125 6.75977C1.03385 6.98763 1.30078 7.10156 1.61328 7.10156ZM1.61328 2.45312H19.8359C20.1484 2.45312 20.4121 2.33919 20.627 2.11133C20.8483 1.88346 20.959 1.61654 20.959 1.31055C20.959 0.991536 20.8483 0.721354 20.627 0.5C20.4121 0.272135 20.1484 0.158203 19.8359 0.158203H1.61328C1.30078 0.158203 1.03385 0.272135 0.8125 0.5C0.597656 0.727865 0.490234 0.998047 0.490234 1.31055C0.490234 1.61003 0.597656 1.87695 0.8125 2.11133C1.03385 2.33919 1.30078 2.45312 1.61328 2.45312Z" fill="#111827"/>
</svg>
