<svg width="86" height="24" viewBox="0 0 86 24" fill="none" xmlns="http://www.w3.org/2000/svg">
<path d="M11.9234 0.770672C12.4976 -0.256892 13.9762 -0.25689 14.5505 0.770674L26.2805 21.7613C26.841 22.7643 26.116 24 24.967 24H1.50687C0.357905 24 -0.367133 22.7643 0.193359 21.7613L11.9234 0.770672Z" fill="url(#paint0_linear_333_1342)"/>
<path d="M21.5129 24H4.96118L11.9575 12.693C12.5457 11.7424 13.9284 11.7424 14.5166 12.693L21.5129 24Z" fill="#65A30D"/>
<path d="M33.6579 3.22405V5.69212H32.4739V1.42303H33.6023V2.17624H33.6523C33.7468 1.92795 33.9052 1.73154 34.1276 1.58701C34.3499 1.44063 34.6195 1.36744 34.9364 1.36744C35.2329 1.36744 35.4913 1.4323 35.7118 1.562C35.9323 1.6917 36.1037 1.87699 36.226 2.11787C36.3483 2.35689 36.4094 2.64224 36.4094 2.97391V5.69212H35.2254V3.18514C35.2273 2.92388 35.1606 2.72006 35.0253 2.57368C34.8901 2.42545 34.7038 2.35134 34.4667 2.35134C34.3073 2.35134 34.1665 2.38561 34.0442 2.45417C33.9238 2.52273 33.8293 2.62279 33.7607 2.75434C33.694 2.88405 33.6597 3.04062 33.6579 3.22405Z" fill="#84CC16"/>
<path d="M39.2715 5.7755C38.8398 5.7755 38.4664 5.68378 38.1514 5.50035C37.8383 5.31506 37.5965 5.0575 37.426 4.72769C37.2555 4.39602 37.1703 4.01154 37.1703 3.57425C37.1703 3.13326 37.2555 2.74786 37.426 2.41804C37.5965 2.08637 37.8383 1.82882 38.1514 1.64538C38.4664 1.46009 38.8398 1.36744 39.2715 1.36744C39.7032 1.36744 40.0756 1.46009 40.3888 1.64538C40.7038 1.82882 40.9465 2.08637 41.117 2.41804C41.2874 2.74786 41.3727 3.13326 41.3727 3.57425C41.3727 4.01154 41.2874 4.39602 41.117 4.72769C40.9465 5.0575 40.7038 5.31506 40.3888 5.50035C40.0756 5.68378 39.7032 5.7755 39.2715 5.7755ZM39.277 4.85832C39.4735 4.85832 39.6374 4.80273 39.769 4.69155C39.9005 4.57853 39.9997 4.42474 40.0664 4.23018C40.1349 4.03563 40.1692 3.8142 40.1692 3.56591C40.1692 3.31763 40.1349 3.0962 40.0664 2.90165C39.9997 2.70709 39.9005 2.5533 39.769 2.44028C39.6374 2.32725 39.4735 2.27073 39.277 2.27073C39.0788 2.27073 38.912 2.32725 38.7768 2.44028C38.6434 2.5533 38.5424 2.70709 38.4738 2.90165C38.4071 3.0962 38.3738 3.31763 38.3738 3.56591C38.3738 3.8142 38.4071 4.03563 38.4738 4.23018C38.5424 4.42474 38.6434 4.57853 38.7768 4.69155C38.912 4.80273 39.0788 4.85832 39.277 4.85832Z" fill="#84CC16"/>
<path d="M45.8829 5.7755C45.4456 5.7755 45.0695 5.68286 44.7545 5.49757C44.4413 5.31042 44.2004 5.05102 44.0318 4.71935C43.8651 4.38768 43.7817 4.00598 43.7817 3.57425C43.7817 3.13697 43.866 2.75342 44.0346 2.4236C44.2051 2.09193 44.4469 1.83345 44.76 1.64816C45.0732 1.46102 45.4456 1.36744 45.8773 1.36744C46.2498 1.36744 46.5759 1.43507 46.8557 1.57034C47.1354 1.7056 47.3569 1.89552 47.5199 2.1401C47.683 2.38469 47.7728 2.67189 47.7895 3.00171H46.6722C46.6407 2.78862 46.5573 2.61723 46.4221 2.48752C46.2887 2.35597 46.1136 2.29019 45.8968 2.29019C45.7133 2.29019 45.5531 2.34022 45.416 2.44028C45.2807 2.53848 45.1751 2.68208 45.0991 2.87108C45.0231 3.06007 44.9852 3.28891 44.9852 3.55758C44.9852 3.82995 45.0222 4.06157 45.0963 4.25242C45.1723 4.44326 45.2788 4.58872 45.416 4.68877C45.5531 4.78883 45.7133 4.83886 45.8968 4.83886C46.032 4.83886 46.1534 4.81107 46.2609 4.75548C46.3702 4.69989 46.4601 4.61929 46.5305 4.51368C46.6027 4.40621 46.65 4.27743 46.6722 4.12734H47.7895C47.771 4.45346 47.6821 4.74066 47.5227 4.98895C47.3652 5.23538 47.1475 5.42808 46.8696 5.56705C46.5916 5.70602 46.2627 5.7755 45.8829 5.7755Z" fill="#84CC16"/>
<path d="M50.4765 5.7755C50.0447 5.7755 49.6714 5.68378 49.3564 5.50035C49.0432 5.31506 48.8014 5.0575 48.631 4.72769C48.4605 4.39602 48.3753 4.01154 48.3753 3.57425C48.3753 3.13326 48.4605 2.74786 48.631 2.41804C48.8014 2.08637 49.0432 1.82882 49.3564 1.64538C49.6714 1.46009 50.0447 1.36744 50.4765 1.36744C50.9082 1.36744 51.2806 1.46009 51.5938 1.64538C51.9088 1.82882 52.1515 2.08637 52.322 2.41804C52.4924 2.74786 52.5777 3.13326 52.5777 3.57425C52.5777 4.01154 52.4924 4.39602 52.322 4.72769C52.1515 5.0575 51.9088 5.31506 51.5938 5.50035C51.2806 5.68378 50.9082 5.7755 50.4765 5.7755ZM50.482 4.85832C50.6784 4.85832 50.8424 4.80273 50.974 4.69155C51.1055 4.57853 51.2047 4.42474 51.2714 4.23018C51.3399 4.03563 51.3742 3.8142 51.3742 3.56591C51.3742 3.31763 51.3399 3.0962 51.2714 2.90165C51.2047 2.70709 51.1055 2.5533 50.974 2.44028C50.8424 2.32725 50.6784 2.27073 50.482 2.27073C50.2838 2.27073 50.117 2.32725 49.9817 2.44028C49.8483 2.5533 49.7473 2.70709 49.6788 2.90165C49.6121 3.0962 49.5787 3.31763 49.5787 3.56591C49.5787 3.8142 49.6121 4.03563 49.6788 4.23018C49.7473 4.42474 49.8483 4.57853 49.9817 4.69155C50.117 4.80273 50.2838 4.85832 50.482 4.85832Z" fill="#84CC16"/>
<path d="M54.9207 5.76161C54.5964 5.76161 54.3027 5.67823 54.0396 5.51146C53.7783 5.34285 53.5708 5.09549 53.417 4.76938C53.2651 4.44141 53.1891 4.03933 53.1891 3.56314C53.1891 3.07397 53.2679 2.66726 53.4254 2.343C53.5829 2.01689 53.7922 1.77323 54.0535 1.61203C54.3166 1.44897 54.6047 1.36744 54.9179 1.36744C55.1569 1.36744 55.3561 1.40821 55.5154 1.48974C55.6766 1.56941 55.8063 1.66947 55.9045 1.78991C56.0046 1.90849 56.0806 2.02522 56.1325 2.1401H56.1686V0H57.3498V5.69212H56.1825V5.0084H56.1325C56.0769 5.12699 55.9981 5.24465 55.8962 5.36138C55.7962 5.47626 55.6655 5.57168 55.5043 5.64765C55.345 5.72362 55.1504 5.76161 54.9207 5.76161ZM55.2959 4.8194C55.4867 4.8194 55.6479 4.76752 55.7795 4.66376C55.9129 4.55815 56.0148 4.41084 56.0852 4.22184C56.1575 4.03285 56.1936 3.81142 56.1936 3.55758C56.1936 3.30373 56.1584 3.08323 56.088 2.89609C56.0176 2.70895 55.9157 2.56442 55.7823 2.46251C55.6488 2.3606 55.4867 2.30965 55.2959 2.30965C55.1013 2.30965 54.9373 2.36245 54.8039 2.46807C54.6705 2.57368 54.5695 2.72006 54.501 2.90721C54.4324 3.09435 54.3981 3.31114 54.3981 3.55758C54.3981 3.80587 54.4324 4.02543 54.501 4.21628C54.5714 4.40528 54.6724 4.55351 54.8039 4.66098C54.9373 4.7666 55.1013 4.8194 55.2959 4.8194Z" fill="#84CC16"/>
<path d="M60.2688 5.7755C59.8297 5.7755 59.4517 5.68656 59.1349 5.50869C58.8199 5.32895 58.5771 5.07511 58.4067 4.74714C58.2362 4.41732 58.151 4.02729 58.151 3.57703C58.151 3.13789 58.2362 2.75249 58.4067 2.42082C58.5771 2.08915 58.8171 1.83067 59.1265 1.64538C59.4378 1.46009 59.8028 1.36744 60.2216 1.36744C60.5032 1.36744 60.7654 1.41284 61.0081 1.50363C61.2527 1.59257 61.4658 1.72691 61.6474 1.90664C61.8308 2.08637 61.9735 2.31242 62.0754 2.5848C62.1773 2.85533 62.2283 3.17217 62.2283 3.53534V3.86053H58.6235V3.12678H61.1138C61.1138 2.95631 61.0767 2.8053 61.0026 2.67374C60.9285 2.54218 60.8256 2.43935 60.6941 2.36523C60.5644 2.28926 60.4134 2.25128 60.241 2.25128C60.0613 2.25128 59.902 2.29297 59.763 2.37635C59.6259 2.45788 59.5184 2.56813 59.4406 2.70709C59.3628 2.84421 59.3229 2.99707 59.3211 3.16569V3.86331C59.3211 4.07454 59.36 4.25705 59.4378 4.41084C59.5175 4.56463 59.6296 4.68322 59.7741 4.7666C59.9186 4.84998 60.09 4.89167 60.2883 4.89167C60.4198 4.89167 60.5403 4.87314 60.6496 4.83608C60.7589 4.79902 60.8525 4.74344 60.9303 4.66932C61.0081 4.5952 61.0674 4.50441 61.1082 4.39694L62.2033 4.46921C62.1477 4.73232 62.0337 4.96208 61.8614 5.15849C61.6909 5.35304 61.4704 5.50498 61.1999 5.6143C60.9312 5.72177 60.6209 5.7755 60.2688 5.7755Z" fill="#84CC16"/>
<path d="M36.5974 23.992C35.8051 23.992 35.0989 23.8545 34.4791 23.5796C33.8592 23.2993 33.3687 22.887 33.0075 22.3425C32.6518 21.7927 32.4739 21.1082 32.4739 20.2888C32.4739 19.5989 32.6005 19.0194 32.8539 18.5505C33.1072 18.0815 33.4522 17.7042 33.8888 17.4185C34.3254 17.1328 34.8213 16.9172 35.3765 16.7717C35.9371 16.6262 36.5247 16.5237 37.1392 16.4644C37.8614 16.389 38.4436 16.3189 38.8856 16.2542C39.3276 16.1842 39.6483 16.0817 39.8478 15.947C40.0472 15.8122 40.1469 15.6128 40.1469 15.3487V15.3001C40.1469 14.7881 39.9852 14.3919 39.6618 14.1116C39.3438 13.8313 38.891 13.6912 38.3035 13.6912C37.6836 13.6912 37.1904 13.8286 36.8238 14.1035C36.4573 14.373 36.2147 14.7126 36.0961 15.1223L32.9105 14.8635C33.0722 14.1089 33.3902 13.4567 33.8646 12.9069C34.3389 12.3517 34.9507 11.9258 35.7 11.6294C36.4546 11.3275 37.3278 11.1766 38.3196 11.1766C39.0096 11.1766 39.6699 11.2574 40.3005 11.4192C40.9366 11.5809 41.4999 11.8315 41.9904 12.1711C42.4863 12.5107 42.8771 12.9473 43.1628 13.4809C43.4485 14.0092 43.5913 14.6425 43.5913 15.381V23.7575H40.3248V22.0353H40.2278C40.0283 22.4234 39.7615 22.7657 39.4273 23.0621C39.0931 23.3532 38.6916 23.5823 38.2226 23.7494C37.7536 23.9111 37.2119 23.992 36.5974 23.992ZM37.5839 21.6148C38.0905 21.6148 38.5379 21.5151 38.926 21.3157C39.3141 21.1109 39.6187 20.836 39.8397 20.491C40.0607 20.146 40.1712 19.7552 40.1712 19.3186V18.0007C40.0634 18.0707 39.9151 18.1354 39.7265 18.1947C39.5432 18.2486 39.3357 18.2998 39.1039 18.3483C38.8721 18.3915 38.6403 18.4319 38.4086 18.4696C38.1768 18.502 37.9666 18.5316 37.7779 18.5586C37.3736 18.6179 37.0206 18.7122 36.7187 18.8416C36.4169 18.9709 36.1824 19.1461 36.0153 19.3671C35.8482 19.5827 35.7646 19.8522 35.7646 20.1756C35.7646 20.6446 35.9344 21.0031 36.274 21.251C36.619 21.4936 37.0556 21.6148 37.5839 21.6148Z" fill="#4B5563"/>
<path d="M52.8693 11.3383V13.9256H45.3903V11.3383H52.8693ZM47.0882 8.36288H50.5326V19.9412C50.5326 20.2592 50.5811 20.5071 50.6782 20.685C50.7752 20.8575 50.9099 20.9788 51.0824 21.0489C51.2603 21.1189 51.4651 21.154 51.6969 21.154C51.8586 21.154 52.0203 21.1405 52.182 21.1136C52.3438 21.0812 52.4677 21.057 52.554 21.0408L53.0957 23.6039C52.9232 23.6578 52.6806 23.7197 52.368 23.7898C52.0554 23.8653 51.6754 23.9111 51.228 23.9273C50.3979 23.9596 49.6702 23.8491 49.0449 23.5958C48.425 23.3424 47.9426 22.9489 47.5976 22.4153C47.2526 21.8817 47.0828 21.2079 47.0882 20.394V8.36288Z" fill="#4B5563"/>
<path d="M58.8242 7.19858V23.7575H55.3798V7.19858H58.8242Z" fill="#4B5563"/>
<path d="M65.1247 23.992C64.3324 23.992 63.6263 23.8545 63.0064 23.5796C62.3865 23.2993 61.896 22.887 61.5348 22.3425C61.1791 21.7927 61.0012 21.1082 61.0012 20.2888C61.0012 19.5989 61.1279 19.0194 61.3812 18.5505C61.6345 18.0815 61.9795 17.7042 62.4161 17.4185C62.8528 17.1328 63.3487 16.9172 63.9039 16.7717C64.4644 16.6262 65.052 16.5237 65.6665 16.4644C66.3888 16.389 66.9709 16.3189 67.4129 16.2542C67.8549 16.1842 68.1756 16.0817 68.3751 15.947C68.5745 15.8122 68.6742 15.6128 68.6742 15.3487V15.3001C68.6742 14.7881 68.5125 14.3919 68.1891 14.1116C67.8711 13.8313 67.4183 13.6912 66.8308 13.6912C66.2109 13.6912 65.7177 13.8286 65.3511 14.1035C64.9846 14.373 64.742 14.7126 64.6235 15.1223L61.4378 14.8635C61.5995 14.1089 61.9175 13.4567 62.3919 12.9069C62.8662 12.3517 63.478 11.9258 64.2273 11.6294C64.9819 11.3275 65.8551 11.1766 66.8469 11.1766C67.5369 11.1766 68.1972 11.2574 68.8279 11.4192C69.4639 11.5809 70.0272 11.8315 70.5177 12.1711C71.0136 12.5107 71.4044 12.9473 71.6901 13.4809C71.9758 14.0092 72.1186 14.6425 72.1186 15.381V23.7575H68.8521V22.0353H68.7551C68.5557 22.4234 68.2888 22.7657 67.9546 23.0621C67.6204 23.3532 67.2189 23.5823 66.7499 23.7494C66.281 23.9111 65.7392 23.992 65.1247 23.992ZM66.1112 21.6148C66.6179 21.6148 67.0652 21.5151 67.4533 21.3157C67.8414 21.1109 68.146 20.836 68.367 20.491C68.588 20.146 68.6985 19.7552 68.6985 19.3186V18.0007C68.5907 18.0707 68.4425 18.1354 68.2538 18.1947C68.0705 18.2486 67.863 18.2998 67.6312 18.3483C67.3994 18.3915 67.1677 18.4319 66.9359 18.4696C66.7041 18.502 66.4939 18.5316 66.3052 18.5586C65.9009 18.6179 65.5479 18.7122 65.246 18.8416C64.9442 18.9709 64.7097 19.1461 64.5426 19.3671C64.3755 19.5827 64.292 19.8522 64.292 20.1756C64.292 20.6446 64.4617 21.0031 64.8013 21.251C65.1463 21.4936 65.5829 21.6148 66.1112 21.6148Z" fill="#4B5563"/>
<path d="M85.124 14.8797L81.9707 15.0738C81.9168 14.8042 81.8009 14.5617 81.623 14.3461C81.4451 14.1251 81.2107 13.9499 80.9196 13.8205C80.6339 13.6858 80.2916 13.6184 79.8927 13.6184C79.3591 13.6184 78.909 13.7316 78.5425 13.958C78.1759 14.179 77.9927 14.4754 77.9927 14.8474C77.9927 15.1438 78.1112 15.3945 78.3484 15.5993C78.5856 15.8041 78.9926 15.9685 79.5693 16.0925L81.8171 16.5453C83.0245 16.7933 83.9247 17.1921 84.5176 17.7419C85.1105 18.2917 85.407 19.014 85.407 19.9088C85.407 20.7228 85.1671 21.437 84.6874 22.0515C84.213 22.6659 83.5608 23.1457 82.7307 23.4907C81.906 23.8302 80.9546 24 79.8766 24C78.2325 24 76.9227 23.6578 75.9471 22.9732C74.9768 22.2832 74.4081 21.3453 74.241 20.1595L77.6288 19.9816C77.7312 20.4829 77.9792 20.8656 78.3727 21.1297C78.7662 21.3885 79.2702 21.5178 79.8846 21.5178C80.4884 21.5178 80.9735 21.4019 81.34 21.1702C81.7119 20.933 81.9006 20.6284 81.906 20.2565C81.9006 19.9439 81.7685 19.6878 81.5098 19.4884C81.2511 19.2836 80.8522 19.1272 80.3132 19.0194L78.1625 18.5909C76.9496 18.3483 76.0468 17.9279 75.4538 17.3296C74.8663 16.7313 74.5725 15.9685 74.5725 15.0414C74.5725 14.2437 74.7882 13.5564 75.2194 12.9796C75.656 12.4029 76.2678 11.9582 77.0548 11.6455C77.8471 11.3329 78.7743 11.1766 79.8361 11.1766C81.4047 11.1766 82.6391 11.5081 83.5392 12.1711C84.4448 12.8341 84.9731 13.737 85.124 14.8797Z" fill="#4B5563"/>
<defs>
<linearGradient id="paint0_linear_333_1342" x1="13.2369" y1="0" x2="13.2369" y2="24" gradientUnits="userSpaceOnUse">
<stop stop-color="#BEF264"/>
<stop offset="1" stop-color="#84CC16"/>
</linearGradient>
</defs>
</svg>
